HIERARCHY
ROOT reference
{
  OFFSET 0 0 0
  CHANNELS 6 Xposition Yposition Zposition Zrotation Xrotation Yrotation
  JOINT Hips
  {
    OFFSET 0 97.8064 0
    CHANNELS 6 Xposition Yposition Zposition Zrotation Xrotation Yrotation
    JOINT ToSpine
    {
      OFFSET -2.69724 7.43032 -0.144315
      CHANNELS 6 Xposition Yposition Zposition Zrotation Xrotation Yrotation
      JOINT Spine
      {
        OFFSET -0.0310711 10.7595 1.96963
        CHANNELS 6 Xposition Yposition Zposition Zrotation Xrotation Yrotation
        JOINT Spine1
        {
          OFFSET 13.1342 3.43533 0.764692
          CHANNELS 6 Xposition Yposition Zposition Zrotation Xrotation Yrotation
          JOINT Neck
          {
            OFFSET 29.8703 7.82586 -0.130764
            CHANNELS 6 Xposition Yposition Zposition Zrotation Xrotation Yrotation
            JOINT Head
            {
              OFFSET 9.52751 0.295786 -0.907742
              CHANNELS 6 Xposition Yposition Zposition Zrotation Xrotation Yrotation
              End Site
              {
                OFFSET 16.4037 0.713936 2.7358
              }
            }
          }
          JOINT LeftShoulder
          {
            OFFSET 27.5574 4.95586 2.47156
            CHANNELS 6 Xposition Yposition Zposition Zrotation Xrotation Yrotation
            JOINT LeftArm
            {
              OFFSET 1.20734 -0.998971 20.1238
              CHANNELS 6 Xposition Yposition Zposition Zrotation Xrotation Yrotation
              JOINT LeftForeArm
              {
                OFFSET 26.8049 -0.0536703 -0.155908
                CHANNELS 6 Xposition Yposition Zposition Zrotation Xrotation Yrotation
                JOINT LeftHand
                {
                  OFFSET 26.6817 0 0.320147
                  CHANNELS 6 Xposition Yposition Zposition Zrotation Xrotation Yrotation
                  End Site
                  {
                    OFFSET 18.6119 0 0.382219
                  }
                }
              }
            }
          }
          JOINT RightShoulder
          {
            OFFSET 27.5927 4.71444 -2.65209
            CHANNELS 6 Xposition Yposition Zposition Zrotation Xrotation Yrotation
            JOINT RightArm
            {
              OFFSET 2.83739 -1.17114 -18.7564
              CHANNELS 6 Xposition Yposition Zposition Zrotation Xrotation Yrotation
              JOINT RightForeArm
              {
                OFFSET 28.839 -0.0548439 1.22491
                CHANNELS 6 Xposition Yposition Zposition Zrotation Xrotation Yrotation
                JOINT RightHand
                {
                  OFFSET 26.5114 0 -0.101894
                  CHANNELS 6 Xposition Yposition Zposition Zrotation Xrotation Yrotation
                  End Site
                  {
                    OFFSET 18.2168 0 0
                  }
                }
              }
            }
          }
        }
      }
    }
    JOINT LeftUpLeg
    {
      OFFSET -4.76168 -1.9167 -10.2353
      CHANNELS 6 Xposition Yposition Zposition Zrotation Xrotation Yrotation
      JOINT LeftLeg
      {
        OFFSET 2.55951 -42.0585 -8.02213
        CHANNELS 6 Xposition Yposition Zposition Zrotation Xrotation Yrotation
        JOINT LeftFoot
        {
          OFFSET 3.16357 -42.5282 -3.95426
          CHANNELS 6 Xposition Yposition Zposition Zrotation Xrotation Yrotation
          JOINT LeftToeBase
          {
            OFFSET 0.346054 -6.02161 12.8035
            CHANNELS 6 Xposition Yposition Zposition Zrotation Xrotation Yrotation
            End Site
            {
              OFFSET 0.134235 -1.35082 5.13018
            }
          }
        }
      }
    }
    JOINT RightUpLeg
    {
      OFFSET -4.94151 -1.41743 10.6446
      CHANNELS 6 Xposition Yposition Zposition Zrotation Xrotation Yrotation
      JOINT RightLeg
      {
        OFFSET -2.56294 -42.0364 -7.94377
        CHANNELS 6 Xposition Yposition Zposition Zrotation Xrotation Yrotation
        JOINT RightFoot
        {
          OFFSET -3.0952 -42.555 -4.02241
          CHANNELS 6 Xposition Yposition Zposition Zrotation Xrotation Yrotation
          JOINT RightToeBase
          {
            OFFSET -0.0828122 -6.13587 12.8035
            CHANNELS 6 Xposition Yposition Zposition Zrotation Xrotation Yrotation
            End Site
            {
              OFFSET -0.131328 -1.35082 5.13018
            }
          }
        }
      }
    }
  }
}
MOTION
Frames:	10
Frame Time:	0.0333333
0 0 0 0 0 -0 0 97.8064 0 -9.21641 -69.4912 -99.4257 -2.69724 7.43032 -0.144315 -70.1915 -6.18407e-015 88.8779 -0.0310711 10.7595 1.96963 64.9783 69.5887 25.2871 13.1342 3.43533 0.764692 4.60351 20.8703 1.40837 29.8703 7.82586 -0.130764 -158.867 19.9774 178.863 9.52751 0.295786 -0.907742 -163.551 59.618 -171.956 27.5574 4.95586 2.47156 3.81932 1.88815 -1.18989 1.20734 -0.998971 20.1238 -90 -2.89528e-014 -90 26.8049 -0.0536703 -0.155908 -2.27865e-008 -1.09882e-007 -6.77748e-008 26.6817 -2.84217e-014 0.320147 -4.83776e-016 2.19066e-016 -1.61484e-015 27.5927 4.71444 -2.65209 2.06088 1.77022 3.86625 2.83739 -1.17114 -18.7564 -88.2385 5 88.8941 28.839 -0.0548439 1.22491 1.27948e-006 4.79839e-007 0.0043221 26.5114 0 -0.101894 -1.10621e-012 -4.76474e-009 -0.0296889 -4.76168 -1.9167 -10.2353 -54.5197 2.7833 99.4142 2.55951 -42.0585 -8.02213 -1.21668 19.2657 -6.32176 3.16357 -42.5282 -3.95426 3.72058 -5.93042 -0.842831 0.346054 -6.02161 12.8035 0.207147 -0.61891 0.346907 -4.94151 -1.41743 10.6446 -55.5919 -0.189965 81.4537 -2.56294 -42.0364 -7.94377 1.38344 13.6714 6.74024 -3.0952 -42.555 -4.02241 -6.15803 -1.03764 0.970027 -0.0828122 -6.13587 12.8035 1.52296 -4.82373 -7.85573 
0 0 0 0 0 -0 -22.0607 92.7703 14.6768 71.8884 -29.6358 -8.19845 -2.69724 7.43032 -0.144315 -70.1915 -3.97569e-015 88.8779 -0.0310711 10.7595 1.96963 76.9443 72.8982 5.62668 13.1342 3.43533 0.764692 4.43795 21.9821 3.55096 29.8703 7.82586 -0.130764 -123.592 33.203 157.15 9.52751 0.295786 -0.907742 176.281 76.6421 -147.256 27.5574 4.95586 2.47156 0.687891 -14.4442 -17.7468 1.20734 -0.998971 20.1238 -59.2203 28.2735 -152.913 26.8049 -0.0536703 -0.155908 12.3385 -0.399489 -91.0663 26.6817 -2.84217e-014 0.320147 3.18055e-015 -7.15625e-015 -3.18055e-015 27.5927 4.71444 -2.65209 -2.30856 7.1471 46.552 2.83739 -1.17114 -18.7564 -120.988 -8.00756 88.7012 28.839 -0.0548439 1.22491 16.535 -4.12066 76.2615 26.5114 1.42109e-014 -0.101894 -1.10607e-012 -4.76474e-009 -0.0296889 -4.76168 -1.9167 -10.2353 -48.2778 15.7981 96.7138 2.55951 -42.0585 -8.02213 -2.63001 42.4056 -4.88048 3.16357 -42.5282 -3.95426 -3.50647 -13.2848 -1.10567 0.346054 -6.02161 12.8035 2.58302 -7.30035 6.47233 -4.94151 -1.41743 10.6446 -43.1293 -15.1458 77.1097 -2.56294 -42.0364 -7.94377 1.64499 35.6352 1.16671 -3.0952 -42.555 -4.02241 -2.99244 -3.01526 0.688946 -0.0828122 -6.13587 12.8035 0.844377 -7.35673 0.366529 
0 0 0 0 0 -0 -22.0319 92.7101 15.0688 71.8731 -29.1205 -7.80748 -2.69724 7.43032 -0.144315 -70.1915 -1.98785e-015 88.8779 -0.0310711 10.7595 1.96963 75.7473 72.7633 6.38416 13.1342 3.43533 0.764692 4.73373 21.6783 4.32934 29.8703 7.82586 -0.130764 -123.725 33.3248 156.86 9.52751 0.295786 -0.907742 176.285 76.8193 -147.284 27.5574 4.95586 2.47156 0.659915 -14.6869 -17.9313 1.20734 -0.998971 20.1238 -59.5476 27.6937 -153.076 26.8049 -0.0536703 -0.155908 12.1404 -0.388519 -91.0421 26.6817 -2.84217e-014 0.320147 3.18055e-015 7.95139e-016 -3.18055e-015 27.5927 4.71444 -2.65209 -2.2551 7.16291 45.765 2.83739 -1.17114 -18.7564 -121.213 -8.86282 88.0526 28.839 -0.0548439 1.22491 16.6443 -3.99476 76.7389 26.5114 2.84217e-014 -0.101894 -1.10289e-012 -4.76474e-009 -0.0296889 -4.76168 -1.9167 -10.2353 -48.0872 16.0711 96.2901 2.55951 -42.0585 -8.02213 -2.71502 42.4655 -5.58275 3.16357 -42.5282 -3.95426 -3.6838 -12.7819 -1.04587 0.346054 -6.02161 12.8035 3.21991 -8.70068 7.5844 -4.94151 -1.41743 10.6446 -43.1132 -15.0184 76.6488 -2.56294 -42.0364 -7.94377 1.68395 36.3011 1.28467 -3.0952 -42.555 -4.02241 -3.36592 -3.34072 0.743472 -0.0828122 -6.13587 12.8035 0.988955 -7.71961 -0.658316 
0 0 0 0 0 -0 -21.9626 92.6508 15.3526 71.7981 -29.1179 -7.82156 -2.69724 7.43032 -0.144315 -70.1915 -1.19271e-015 88.8779 -0.0310711 10.7595 1.96963 76.4599 72.4328 5.89647 13.1342 3.43533 0.764692 4.51752 21.4399 3.85181 29.8703 7.82586 -0.130764 -123.936 33.3257 157.33 9.52751 0.295786 -0.907742 175.393 76.6213 -146.586 27.5574 4.95586 2.47156 0.71994 -14.1109 -17.6354 1.20734 -0.998971 20.1238 -58.9239 27.886 -153.216 26.8049 -0.0536703 -0.155908 11.6624 -0.436963 -91.3402 26.6817 -1.42109e-014 0.320147 -6.36111e-015 5.56597e-015 -3.18055e-015 27.5927 4.71444 -2.65209 -2.36011 7.31251 46.5061 2.83739 -1.17114 -18.7564 -121.021 -8.83667 88.6303 28.839 -0.0548439 1.22491 17.0432 -4.16122 76.5577 26.5114 2.84217e-014 -0.101894 -1.11084e-012 -4.76474e-009 -0.0296889 -4.76168 -1.9167 -10.2353 -48.1428 16.1712 95.9436 2.55951 -42.0585 -8.02213 -2.57728 42.3322 -4.51779 3.16357 -42.5282 -3.95426 -3.26305 -12.3169 -1.00132 0.346054 -6.02161 12.8035 3.70804 -9.07934 4.97066 -4.94151 -1.41743 10.6446 -42.9215 -14.6609 77.2318 -2.56294 -42.0364 -7.94377 1.63751 36.8223 0.951232 -3.0952 -42.555 -4.02241 -3.25064 -3.90351 0.759595 -0.0828122 -6.13587 12.8035 1.06197 -7.80471 -1.31876 
0 0 0 0 0 -0 -21.8473 92.5295 15.5013 71.8229 -29.0149 -7.73491 -2.69724 7.43032 -0.144315 -70.1915 -5.56597e-015 88.8779 -0.0310711 10.7595 1.96963 72.9935 72.6289 8.31818 13.1342 3.43533 0.764692 5.47663 21.2912 5.66576 29.8703 7.82586 -0.130764 -125.655 34.4619 159.322 9.52751 0.295786 -0.907742 170.185 76.6646 -142.198 27.5574 4.95586 2.47156 0.614031 -14.7114 -19.004 1.20734 -0.998971 20.1238 -59.8918 27.361 -152.88 26.8049 -0.0536703 -0.155908 11.756 -0.405904 -91.1757 26.6817 -1.42109e-014 0.320147 -3.18055e-015 -4.77083e-015 -3.18055e-015 27.5927 4.71444 -2.65209 -2.26606 7.6195 44.0121 2.83739 -1.17114 -18.7564 -121.597 -10.3795 87.5894 28.839 -0.0548439 1.22491 16.9817 -4.06475 76.8011 26.5114 0 -0.101894 -1.10607e-012 -4.76474e-009 -0.0296889 -4.76168 -1.9167 -10.2353 -47.8137 16.1578 95.6177 2.55951 -42.0585 -8.02213 -2.62111 43.0482 -4.29975 3.16357 -42.5282 -3.95426 -2.9884 -13.2445 -1.10743 0.346054 -6.02161 12.8035 2.87774 -7.6964 5.81157 -4.94151 -1.41743 10.6446 -42.7054 -14.4864 77.6446 -2.56294 -42.0364 -7.94377 1.58599 37.4518 0.2903 -3.0952 -42.555 -4.02241 -3.50546 -4.18035 0.797171 -0.0828122 -6.13587 12.8035 1.01973 -8.08621 -0.526625 
0 0 0 0 0 -0 -21.8094 92.2365 15.4999 71.8273 -29.1413 -7.25774 -2.69724 7.43032 -0.144315 -70.1915 -4.77083e-015 88.8779 -0.0310711 10.7595 1.96963 75.8851 72.722 6.25949 13.1342 3.43533 0.764692 4.62148 21.5947 4.55169 29.8703 7.82586 -0.130764 -123.358 33.0637 155.865 9.52751 0.295786 -0.907742 177.795 76.9509 -148.318 27.5574 4.95586 2.47156 0.669495 -14.7656 -17.5347 1.20734 -0.998971 20.1238 -59.1135 27.699 -153.93 26.8049 -0.0536703 -0.155908 11.3067 -0.357865 -91.0138 26.6817 -1.42109e-014 0.320147 -3.18055e-015 1.59028e-015 3.18055e-015 27.5927 4.71444 -2.65209 -2.24549 7.0232 46.2543 2.83739 -1.17114 -18.7564 -121.175 -8.88222 88.5128 28.839 -0.0548439 1.22491 16.2651 -3.98606 76.4732 26.5114 1.42109e-014 -0.101894 -1.11243e-012 -4.76474e-009 -0.0296889 -4.76168 -1.9167 -10.2353 -47.0227 16.4078 94.6298 2.55951 -42.0585 -8.02213 -2.89898 44.6281 -5.24259 3.16357 -42.5282 -3.95426 -2.61492 -12.9067 -1.0765 0.346054 -6.02161 12.8035 3.81279 -10.059 9.30368 -4.94151 -1.41743 10.6446 -42.2234 -13.8287 78.3534 -2.56294 -42.0364 -7.94377 1.65342 38.5322 0.226161 -3.0952 -42.555 -4.02241 -3.36055 -4.19864 0.78447 -0.0828122 -6.13587 12.8035 1.26808 -9.12621 -2.01677 
0 0 0 0 0 -0 -21.6611 91.8185 15.2689 72.0014 -29.7328 -7.1134 -2.69724 7.43032 -0.144315 -70.1915 -4.37326e-015 88.8779 -0.0310711 10.7595 1.96963 77.94 72.6602 4.08345 13.1342 3.43533 0.764692 3.92168 21.2153 5.42603 29.8703 7.82586 -0.130764 -124.277 33.8443 158.873 9.52751 0.295786 -0.907742 170.158 76.2367 -140.703 27.5574 4.95586 2.47156 0.679072 -14.2858 -18.3478 1.20734 -0.998971 20.1238 -59.4749 27.6654 -153.157 26.8049 -0.0536703 -0.155908 11.7638 -0.440057 -91.3319 26.6817 -2.84217e-014 0.320147 6.62086e-031 -1.19271e-014 3.18055e-015 27.5927 4.71444 -2.65209 -2.35145 7.60402 45.1653 2.83739 -1.17114 -18.7564 -120.627 -9.83437 88.6033 28.839 -0.0548439 1.22491 17.0292 -4.3986 75.8168 26.5114 1.42109e-014 -0.101894 -1.10766e-012 -4.76474e-009 -0.0296889 -4.76168 -1.9167 -10.2353 -46.0253 15.9625 92.7168 2.55951 -42.0585 -8.02213 -3.30303 47.3824 -5.79951 3.16357 -42.5282 -3.95426 -2.09935 -12.678 -1.06143 0.346054 -6.02161 12.8035 4.51702 -11.743 12.8064 -4.94151 -1.41743 10.6446 -41.2598 -13.5576 79.6022 -2.56294 -42.0364 -7.94377 1.58558 40.2507 -1.26089 -3.0952 -42.555 -4.02241 -2.09432 -4.64685 0.692539 -0.0828122 -6.13587 12.8035 0.980354 -8.81996 0.933703 
0 0 0 0 0 -0 -21.4775 91.1399 14.6869 72.51 -30.8374 -6.62652 -2.69724 7.43032 -0.144315 -70.1915 -6.36111e-015 88.8779 -0.0310711 10.7595 1.96963 81.1733 72.8846 1.15748 13.1342 3.43533 0.764692 3.43638 21.2716 5.86489 29.8703 7.82586 -0.130764 -125.202 33.8818 159.474 9.52751 0.295786 -0.907742 171.496 76.1481 -142.204 27.5574 4.95586 2.47156 0.690185 -14.2781 -18.0649 1.20734 -0.998971 20.1238 -59.8333 28.2437 -153.088 26.8049 -0.0536703 -0.155908 11.928 -0.491713 -91.5424 26.6817 -4.26326e-014 0.320147 -2.64834e-031 -4.77083e-015 -3.18055e-015 27.5927 4.71444 -2.65209 -2.31475 7.72176 44.2289 2.83739 -1.17114 -18.7564 -120.472 -10.9615 89.0079 28.839 -0.0548439 1.22491 18.0431 -4.99819 74.9014 26.5114 2.84217e-014 -0.101894 -1.10765e-012 -4.76473e-009 -0.0296889 -4.76168 -1.9167 -10.2353 -44.719 15.3148 89.7764 2.55951 -42.0585 -8.02213 -3.99078 51.7237 -6.00367 3.16357 -42.5282 -3.95426 -2.03167 -13.9611 -1.19076 0.346054 -6.02161 12.8035 4.91894 -12.533 14.1318 -4.94151 -1.41743 10.6446 -40.1341 -12.9411 81.6235 -2.56294 -42.0364 -7.94377 1.79869 42.6326 -1.12679 -3.0952 -42.555 -4.02241 -1.33357 -4.90033 0.640962 -0.0828122 -6.13587 12.8035 0.976489 -8.50609 0.514572 
0 0 0 0 0 -0 -21.3205 90.1413 13.6712 72.9532 -32.7254 -6.91532 -2.69724 7.43032 -0.144315 -70.1915 -7.95139e-016 88.8779 -0.0310711 10.7595 1.96963 86.7515 73.139 -4.3602 13.1342 3.43533 0.764692 2.09799 21.5149 5.86677 29.8703 7.82586 -0.130764 -124.459 33.4833 159.192 9.52751 0.295786 -0.907742 173.46 76.0122 -142.797 27.5574 4.95586 2.47156 0.7097 -14.2468 -17.6058 1.20734 -0.998971 20.1238 -60.2029 29.2603 -152.879 26.8049 -0.0536703 -0.155908 12.241 -0.433811 -91.224 26.6817 -2.84217e-014 0.320147 -0 -8.74653e-015 -0 27.5927 4.71444 -2.65209 -2.30863 7.87073 43.5777 2.83739 -1.17114 -18.7564 -119.886 -12.6234 89.8501 28.839 -0.0548439 1.22491 18.8641 -5.95316 72.9959 26.5114 2.84217e-014 -0.101894 -1.09971e-012 -4.76474e-009 -0.0296889 -4.76168 -1.9167 -10.2353 -43.8147 13.429 86.2114 2.55951 -42.0585 -8.02213 -5.29952 56.7297 -7.70428 3.16357 -42.5282 -3.95426 -0.952172 -16.613 -1.438 0.346054 -6.02161 12.8035 5.11316 -12.7733 13.5691 -4.94151 -1.41743 10.6446 -38.1288 -12.4416 84.9353 -2.56294 -42.0364 -7.94377 2.16432 45.4923 -0.400281 -3.0952 -42.555 -4.02241 -4.19198 -3.46386 0.832003 -0.0828122 -6.13587 12.8035 1.60643 -12.9314 -0.642829 
0 0 0 0 0 -0 -21.098 89.3822 12.2373 73.2263 -34.7791 -8.21139 -2.69724 7.43032 -0.144315 -70.1915 -2.38542e-015 88.8779 -0.0310711 10.7595 1.96963 90.0142 73.5118 -8.562 13.1342 3.43533 0.764692 1.4505 21.9647 5.60901 29.8703 7.82586 -0.130764 -123.319 32.9353 158.427 9.52751 0.295786 -0.907742 174.764 75.8423 -142.464 27.5574 4.95586 2.47156 0.687942 -14.9176 -16.8068 1.20734 -0.998971 20.1238 -61.4395 30.7343 -153.11 26.8049 -0.0536703 -0.155908 11.3499 -0.277966 -90.6181 26.6817 -2.84217e-014 0.320147 -3.18055e-015 5.56597e-015 -6.36111e-015 27.5927 4.71444 -2.65209 -2.11169 8.37427 39.4202 2.83739 -1.17114 -18.7564 -119.316 -18.6109 87.7261 28.839 -0.0548439 1.22491 15.2478 -5.32334 71.1179 26.5114 1.42109e-014 -0.101894 -1.11402e-012 -4.76473e-009 -0.0296889 -4.76168 -1.9167 -10.2353 -43.8136 8.9394 81.0235 2.55951 -42.0585 -8.02213 -7.6847 61.3585 -14.0702 3.16357 -42.5282 -3.95426 -0.339605 -18.326 -1.57441 0.346054 -6.02161 12.8035 6.53405 -15.1095 15.679 -4.94151 -1.41743 10.6446 -36.0784 -12.6504 88.6507 -2.56294 -42.0364 -7.94377 2.46667 47.3176 0.440449 -3.0952 -42.555 -4.02241 -5.21948 -2.10299 0.890832 -0.0828122 -6.13587 12.8035 1.85364 -14.9817 -0.626769 
